<svg width="190" height="44" fill="none" xmlns="http://www.w3.org/2000/svg">
  <path d="M87.6923 20.8628v-3.8747h15.2317v3.8747h-5.2713V34.701h-4.6893V20.8628h-5.2711zM109.506 27.2283v7.4727h-4.723V16.9881h4.552v6.9537h.137c.297-.8476.79-1.5078 1.48-1.9806.691-.4786 1.521-.7179 2.491-.7179.929 0 1.737.2134 2.421.64.69.4267 1.224 1.0148 1.6 1.7644.383.7496.571 1.6087.565 2.5774v8.4759h-4.723v-7.4727c.005-.6573-.157-1.1733-.488-1.5481-.325-.3748-.79-.5622-1.395-.5622-.576 0-1.038.1874-1.386.5622-.348.3748-.525.8908-.531 1.5481zM126.659 34.9431c-2.105 0-3.762-.6025-4.972-1.8076-1.203-1.2108-1.805-2.8916-1.805-5.0423 0-1.3723.273-2.5716.821-3.5979.548-1.0263 1.321-1.8249 2.319-2.3957.998-.5709 2.176-.8563 3.534-.8563 1.324 0 2.473.2739 3.449.8217.981.5477 1.74 1.3319 2.276 2.3525.542 1.0148.813 2.2285.813 3.6411v1.1071h-8.557v.2076c0 .64.194 1.1705.582 1.5914.393.4151.941.6227 1.642.6227.485 0 .908-.1009 1.267-.3027.365-.2076.616-.4988.753-.8736h4.313c-.223 1.3839-.896 2.4851-2.02 3.3039-1.118.8188-2.59 1.2281-4.415 1.2281zm-2.122-8.4067h4.21c-.012-.5708-.217-1.0349-.616-1.3924-.394-.3633-.885-.5449-1.472-.5449-.576 0-1.073.1787-1.489.5362-.411.3575-.622.8245-.633 1.4011zM150.159 16.9881h4.723v11.6933c0 1.3492-.314 2.488-.941 3.4163-.622.9225-1.501 1.6231-2.636 2.1016-1.129.4728-2.459.7093-3.987.7093-1.541 0-2.878-.2365-4.014-.7093-1.129-.4785-2.005-1.1791-2.627-2.1016-.616-.9283-.924-2.0671-.924-3.4163V16.9881h4.758v11.4857c0 .6573.248 1.1906.744 1.6.502.4094 1.19.6141 2.063.6141.89 0 1.586-.2047 2.088-.6141s.753-.9427.753-1.6V16.9881zM166.59 22.5234c-.046-.5766-.259-1.0264-.642-1.3493-.376-.3229-.949-.4843-1.72-.4843-.736 0-1.272.1268-1.608.3805-.337.2537-.508.5766-.514.9687-.023.4209.157.764.539 1.0292.388.2653.996.4873 1.823.666l1.438.3114c1.933.4209 3.328 1.0955 4.184 2.0238.856.9225 1.286 2.0584 1.292 3.4077-.006 1.747-.639 3.0905-1.9 4.0303-1.26.9341-3 1.4012-5.219 1.4012-1.524 0-2.853-.2278-3.988-.6833-1.129-.4555-2.008-1.1561-2.636-2.1017-.621-.9514-.935-2.168-.941-3.6498h4.518c.04.813.317 1.4328.83 1.8595.519.4209 1.235.6314 2.148.6314.765 0 1.341-.1384 1.729-.4152.393-.2767.593-.6342.599-1.0724-.006-.4037-.203-.7381-.591-1.0033-.388-.271-1.069-.5132-2.045-.7265l-1.746-.3806c-1.551-.3402-2.775-.9081-3.67-1.7038-.89-.8015-1.333-1.8941-1.327-3.2779-.006-1.1244.291-2.1075.89-2.9493.605-.8476 1.441-1.5078 2.507-1.9806 1.073-.4728 2.302-.7092 3.688-.7092 1.415 0 2.639.2393 3.671.7179 1.033.4785 1.829 1.1531 2.388 2.0238.565.8649.85 1.8768.855 3.0358h-4.552zM177.062 34.701h-5.134l5.784-17.7129h6.503L190 34.701h-5.134l-1.01-3.3904h-5.784l-1.01 3.3904zm2.088-6.9883h3.628l-1.746-5.8467h-.137l-1.745 5.8467zM72.8594 5.4725v.4384l-1.315 1.1641-.65-.0213-.4937.2627.1343.527v.3727l-1.1454.55-.1998.7685v1.4482l.8985 1.0524-.1126.4401-.9438.3727v.5911l-.6785.3579-.4468.2348h-.7406l-1.1673 1.1641.1797.1757.2033 1.3168-.7642 1.7142-.2906-.0444-.0671-.4843-.7256-.0394.4988.8521.5845.6798-.2469 1.0114-.4048.6469h-.3963l.0604-.7356-.3426-.5287-.5021-.2578-.0521-.6633.1579-.8341-.2452-.1543-.5627.5714.2033.417.0453.9228.3594.1757.3813.7027.0822.3826.0504.2315-.1578.5057.5844.0443.4501.1938-.1125.5516.3812.2414-.0218.2184-.3829.3513.6735.5058v.6584l-.5173.307.314.5484-.2233.55-1.7752.2841v.6797l-.5156.9671-.8314.1774-.1276.2118-.4787.7963.0235.44-1.0765 1.1182h-.4535l-.3594.7684-.5845.307-.01.1839-.1461 2.2757.4265.55.1814.7668.0235.0214.4485.3743v.5944l1.0765.8998.1125 1.0114.4031.7372.7877 1.4367v2.1772h-1.6627s.0017-.0197 0-.0247c-.0638-.1609-.4719-.509-.4719-.509l-.6265.0476v-.747h-.4283l-.1797-.2841v-.417l-.3594-.023-.7171-.8128.0907-.4613-.3594.0443-.1814-.3284.0235-.0969.1579-.6715-.1142-1.1411-.3813-.1314-1.1437-1.2298-.9674-.0673-1.1437.6584-.4501.11-.6953-1.0081-1.8559-.1346-.2771-.0198-.0285.0198-.5778.4186-.314-.3513-.3981.3448-1.6677.0065v.7028l-.3141.417.8532.8571-.4719.2841-1.1454-.5271-.608.7044-1.0312-.0033-.2906-.9884-1.1907-.3284v.5057l-.2452.1543-1.6409-.417h-.6953l-2.2236.9654v.4401l-.8969.5911-.9892.1986-.3594.5271-.4938.0443-.2687.6141-.3359.0886.0219 1.2742c-.0622.2101-.0538.4614-.0168.7044.0856.5484.3308 1.0721.3308 1.0721L35.2843 44l-1.2109-.3514c-.781-.1477-1.2613-.5566-1.5502-.9391-.3124-.4122-.4047-.7931-.4047-.7931-.089-.5944-.2234-.8127-.2234-.8127-.7407-.4171-1.3033-1.9539-1.3033-1.9539-.0067-.0197-.0151-.0361-.0235-.0526-.5374-1.2593-1.3016-1.8783-1.3016-1.8783h-.7406l-.2234-.2414-1.258-.0443v.8571l-.786.5911c-1.1672-.2841-1.9935-1.7027-1.9935-1.7027l.0403-.7766-2.5595-3.0293-2.3815-.1757-.1999.9014-4.2457-.5057-4.8722-2.8767v-.7684H6.6256l-.1109-1.192-.047-.5189-.5845-.2183v-.6584h-.539l-.0824-.4746-.4551-.1182-.8549-1.0311-1.1219-.1313-.3812-.3071.052-.1527.0017-.0016.1697-.4844-.1344-.2397-.1142-.2857.1579-.3957-.7172-1.7339-.2032-.1773v-.2627l.314-.3284v-.3284l-.5172-.5943.0453-1.2955-.4719-.5057.0454-.7027-.5257-.7767.0537-1.0409.1579-.6634L0 13.9891l.4283-.5714.7843-1.2511-.089-.6141.2234-.3957.0906-1.5795L2.8753 7.029v-.5713l.2401-.3432.2083-.294.4501-1.4037v-.3941l.4048-.4614-.247-.44.0286-.7159.3745-.3563-.3577-.0493.0219-.5254-.2234-.11v-.3497l.2233-.591h.3141l.2032.527.7407.2857.786.1313v.5287l-.336.4614-.45.1527.0907.7027h.65l.45-.527v-.6174l.1798-.2184-.3595-.4613.2587-.44.1007-.2398L6.424.5106 6.6256 0l2.7829.839 3.4379.8998 1.1773.2545.1478.0312 5.8614.9227.1276.0164 1.431.1675 7.2721.8604 6.325.2726 2.9643-.1954v-.5714l.6079.3497v.724l1.258.4401.3594-.3957.9422.307.2704.44.9203.3071.7188-.2216 1.5704.2413.3829-.591.4702-.0444.6282-.6584-.0437-.2414.1797-.3283 1.7064.0656.314.1987.6517 1.2068.6499.023.1344-.3514.5626.3284.0454.573.3594.2398.0168.463.005.1757.3812.0213v.4614l.4266.307.1814.394 1.5267-.087 2.2992-.046.912.8802.7171 1.0524-.2704.4548h-.9976l-.5039-.5631-.1578.0886.0638.4745.0487.358-.4719.8341.314 1.2741-.7188.5714-.0655 1.1198-.7407.2397v.3743l.8314.0444 1.1891-1.3398 1.1.0656.9674-.7454.6718.0214.1797-.3514-.1562-.3071-.7188.0887-.1125-.5057.7171-.6798 1.2126-.6354.9455.0427-.136-.417 1.5032-.6141.3375-.6798.9439-.8127 3.5924-.8144.2234-.5894.5542-.1527.0051-.0017.136-.2627.0218-.417.3158-.11-.0235-.4614-.2688-.55.3712-1.811h2.4739l.5912 1.811.5391.023.0638.5648.9808.1116z" fill="#fff"/>
</svg>